<?xml version="1.0" encoding="UTF-8"?>
<svg id="Layer_2" data-name="Layer 2" xmlns="http://www.w3.org/2000/svg" viewBox="0 0 25.68 25.68">
  <defs>
    <style>
      .cls-1 {
        fill: #fff;
      }
    </style>
  </defs>
  <g id="Layer_1-2" data-name="Layer 1">
    <g>
      <path class="cls-1" d="M13.71,8.95l.12.49.03.1.08-.22c.12-.33,1.75-4.77,1.82-4.97l-1.19-.32-.1.56-.76,4.36Z"/>
      <path class="cls-1" d="M14.12,10.33c.05.1.1.2.16.29l.04-.06,3.67-5.5.31-.47-1.05-.6-.25.51-2.89,5.84Z"/>
      <path class="cls-1" d="M14.54,10.94c.06.07.13.14.2.2l5.7-5.1.42-.38-.84-.84-.38.42-5.1,5.7Z"/>
      <path class="cls-1" d="M15.06,11.4c.09.06.19.12.29.16l7.18-3.66.5-.26-.59-1.03-.48.31-6.84,4.44-.06.04Z"/>
      <polygon class="cls-1" points="16.13 11.82 16.24 11.85 16.71 11.96 23.92 10.46 24.47 10.34 24.16 9.19 23.62 9.36 16.36 11.75 16.13 11.82"/>
      <polygon class="cls-1" points="4.02 11.12 4.58 11.21 8.95 11.97 9.44 11.85 9.54 11.83 9.33 11.75 4.88 10.12 4.34 9.93 4.02 11.12"/>
      <path class="cls-1" d="M3.98,8.42l.51.25,5.84,2.89c.1-.05.2-.1.29-.16l-.06-.04-5.5-3.67-.47-.31-.6,1.05Z"/>
      <path class="cls-1" d="M4.82,5.67l.42.38,5.7,5.1c.07-.06.14-.13.2-.2l-5.1-5.7-.38-.42-.84.84Z"/>
      <path class="cls-1" d="M6.61,3.24l.31.48,4.44,6.84.04.07c.06-.09.12-.19.16-.29l-3.66-7.18-.26-.5-1.03.59Z"/>
      <polygon class="cls-1" points="9.19 1.52 9.37 2.06 11.75 9.32 11.82 9.55 11.85 9.43 11.97 8.97 10.46 1.76 10.34 1.21 9.19 1.52"/>
      <polygon class="cls-1" points="9.92 21.34 11.12 21.66 11.21 21.1 11.97 16.73 11.85 16.24 11.83 16.15 11.75 16.35 10.12 20.8 9.92 21.34"/>
      <path class="cls-1" d="M7.38,21.1l1.04.6.25-.51,2.89-5.84c-.05-.1-.1-.2-.16-.29l-.04.06-3.67,5.5-.31.47Z"/>
      <path class="cls-1" d="M4.82,20.01l.84.84.38-.42,5.1-5.7c-.06-.07-.13-.14-.2-.2l-5.7,5.1-.42.38Z"/>
      <path class="cls-1" d="M2.64,18.04l.59,1.03.48-.31,6.84-4.44.07-.04c-.09-.06-.19-.12-.29-.16l-7.18,3.66-.5.26Z"/>
      <polygon class="cls-1" points="1.21 15.34 1.52 16.49 2.05 16.32 9.33 13.93 9.55 13.85 9.44 13.83 8.97 13.72 1.76 15.22 1.21 15.34"/>
      <polygon class="cls-1" points="16.15 13.85 16.36 13.93 20.8 15.56 21.34 15.76 21.66 14.56 21.09 14.47 16.74 13.71 16.24 13.83 16.15 13.85"/>
      <path class="cls-1" d="M15.06,14.28l.06.04,5.5,3.67.47.31.6-1.04-.51-.25-5.84-2.89c-.1.05-.2.1-.29.16Z"/>
      <path class="cls-1" d="M14.54,14.74l5.1,5.7.38.42.84-.84-.42-.38-5.7-5.1c-.07.06-.14.13-.2.2Z"/>
      <path class="cls-1" d="M14.12,15.35l3.66,7.18.26.5,1.03-.59-.31-.48-4.44-6.84-.04-.06c-.06.09-.12.19-.16.29Z"/>
      <polygon class="cls-1" points="13.72 16.71 15.22 23.92 15.34 24.47 16.49 24.16 16.32 23.63 13.93 16.37 13.85 16.14 13.83 16.24 13.72 16.71"/>
      <polygon class="cls-1" points="12.27 .57 12.84 8.24 13.41 .57 13.45 0 12.23 0 12.27 .57 12.27 .57"/>
      <polygon class="cls-1" points=".57 13.41 8.24 12.84 .57 12.27 0 12.23 0 13.45 .57 13.41 .57 13.41"/>
      <polygon class="cls-1" points="13.41 25.11 12.84 17.44 12.27 25.11 12.23 25.68 13.45 25.68 13.41 25.11 13.41 25.11"/>
      <polygon class="cls-1" points="25.11 12.27 17.44 12.84 25.11 13.41 25.68 13.45 25.68 12.23 25.11 12.27 25.11 12.27"/>
    </g>
  </g>
</svg>