<?xml version="1.0" encoding="UTF-8"?>
<svg id="Layer_2" data-name="Layer 2" xmlns="http://www.w3.org/2000/svg" viewBox="0 0 1170.55 501.57">
  <defs>
    <style>
      .cls-1 {
        fill: #2D1B69;
      }
    </style>
  </defs>
  <g id="Layer_1-2" data-name="Layer 1">
    <g>
      <g>
        <path class="cls-1" d="M658.05,15.57h6.56l23.87,62.32,5.98,1.22v4.08h-22.6v-4.08l6.17-.49.73-1.41-7.19-19.01h-23.48l-7.1,19.01,1.02,1.41,6.47.49v4.08h-19.49v-4.08l5.74-1.22,23.33-62.32ZM659.61,26.02l-9.82,27.61h20.08l-10.26-27.61Z"/>
        <path class="cls-1" d="M694.71,83.19v-4.08l5.64-.49,1.7-1.41V22.37l-1.7-1.41-6.47-.58v-3.99h22.7c9.98,0,17.09,1.57,21.32,4.72s6.34,8.35,6.34,15.6c0,6.48-2.33,11.67-6.98,15.56s-10.91,5.83-18.79,5.83c-.81,0-1.8-.04-2.97-.12s-2.66-.2-4.47-.36l-.05,19.59,1.7,1.41,7.1.49v4.08h-25.08ZM710.99,52.81c1.81.19,3.22.33,4.2.41s1.79.12,2.41.12c5.67,0,9.99-1.44,12.96-4.33,2.97-2.88,4.45-7.07,4.45-12.54s-1.53-9.19-4.59-11.72c-3.06-2.53-7.8-3.79-14.22-3.79-1.36,0-2.41.02-3.14.05s-1.42.08-2.07.15v31.65Z"/>
        <path class="cls-1" d="M750.96,81.2v-17.5h5.88l1.17,11.42,1.31,1.7c1.46.75,3.13,1.31,5.01,1.7,1.88.39,3.92.58,6.13.58,4.63,0,8.3-1.08,11.01-3.23,2.71-2.16,4.06-5.06,4.06-8.73,0-5.09-4.76-9.66-14.29-13.71-1.04-.45-1.83-.79-2.38-1.02-6.81-2.95-11.31-5.7-13.51-8.24-2.2-2.54-3.31-5.84-3.31-9.89,0-5.7,2.1-10.31,6.3-13.83,4.2-3.52,9.76-5.27,16.7-5.27,2.79,0,5.58.23,8.39.7s5.66,1.17,8.58,2.11v15.41h-5.2l-1.51-9.48-1.46-1.65c-1.26-.71-2.64-1.24-4.13-1.58s-3.11-.51-4.86-.51c-4.15,0-7.44,1.08-9.87,3.23-2.43,2.16-3.65,5.08-3.65,8.77,0,2.69.85,4.92,2.55,6.68,1.7,1.77,5.5,3.9,11.4,6.39.55.23,1.38.55,2.48.97,5.8,2.27,9.98,4.67,12.54,7.19,1.46,1.43,2.55,3.06,3.28,4.91.73,1.85,1.09,3.86,1.09,6.03,0,6-2.35,10.83-7.05,14.51-4.7,3.68-10.94,5.52-18.72,5.52-3.47,0-6.73-.28-9.8-.83-3.06-.55-5.78-1.34-8.14-2.38Z"/>
        <path class="cls-1" d="M801.85,83.19v-4.08l6.37-.49,1.7-1.41V22.37l-1.7-1.41-6.37-.58v-3.99h25.28v3.99l-6.37.58-1.7,1.41v54.84l1.7,1.41,6.37.49v4.08h-25.28Z"/>
        <path class="cls-1" d="M887.17,80.9c-3.27,1.13-6.61,2-10.01,2.6s-6.76.9-10.06.9-6.34-.34-9.19-1.02c-2.85-.68-5.44-1.67-7.78-2.97-5.35-3.05-9.55-7.3-12.61-12.76-3.06-5.46-4.59-11.43-4.59-17.91,0-10.37,3.17-18.72,9.5-25.06,6.34-6.34,14.69-9.5,25.06-9.5,2.98,0,6.12.28,9.41.85s6.72,1.42,10.28,2.55v15.31h-5.54l-1.51-9.04-1.31-1.8c-1.91-.88-3.78-1.52-5.59-1.94s-3.66-.63-5.54-.63c-7.52,0-13.48,2.56-17.89,7.68-4.41,5.12-6.61,12.09-6.61,20.9,0,9.37,2.3,16.71,6.9,22.05,4.6,5.33,10.97,8,19.1,8,1.43,0,2.86-.11,4.3-.32s2.89-.54,4.35-1l1.56-1.56,2.43-11.08h5.35v15.75Z"/>
        <path class="cls-1" d="M633.07,182.75v-4.08l5.64-.49,1.7-1.41v-54.84l-1.7-1.41-5.64-.58v-3.99h47.69v14.54h-5.59l-1.41-8.46-1.36-1.51h-23.04v25.18h16.33l1.41-1.41.97-7.24h4.72v21.92h-4.72l-.97-7.19-1.41-1.51h-16.33v27.9h26.69l1.41-1.6,1.7-10.06h5.15v16.24h-51.24Z"/>
        <path class="cls-1" d="M688.1,182.75v-3.6l5.4-.49,1.7-1.6v-36.02h-7.1v-3.11l11.57-3.55h3.79v5.44c3.99-2.2,7.19-3.75,9.63-4.64s4.57-1.34,6.42-1.34c4.34,0,7.66,1.3,9.97,3.89s3.45,6.35,3.45,11.28v28.05l1.7,1.6,5.35.49v3.6h-21.78v-3.6l4.76-.49,1.7-1.6v-26.35c0-3.73-.77-6.37-2.31-7.92s-4.12-2.33-7.75-2.33c-1.59,0-3.31.27-5.15.8s-3.84,1.35-5.98,2.45v33.35l1.7,1.6,4.76.49v3.6h-21.83Z"/>
        <path class="cls-1" d="M739.19,134.86h21.58v3.69l-5.25.39-1.22,1.6,11.67,32.52,12.74-32.52-.83-1.6-5.35-.39v-3.69h17.6v3.69l-5.83.78-17.45,43.41h-5.59l-15.99-43.61-6.08-.58v-3.69Z"/>
        <path class="cls-1" d="M801.8,134.38h3.89v42.68l1.7,1.6,5.35.49v3.6h-22.36v-3.6l5.25-.49,1.7-1.6v-36.02h-6.95v-3.11l11.42-3.55ZM802.19,112.26c1.62,0,2.99.57,4.11,1.7s1.68,2.5,1.68,4.08-.56,2.93-1.68,4.03-2.49,1.65-4.11,1.65-2.94-.55-4.06-1.65-1.68-2.45-1.68-4.03.56-2.99,1.68-4.11,2.47-1.68,4.06-1.68Z"/>
        <path class="cls-1" d="M815.71,182.75v-3.6l5.3-.49,1.7-1.6v-36.02h-7v-3.11l11.57-3.55h3.79v9.33c1.62-1.65,3.31-3.28,5.08-4.89,1.77-1.6,3.62-3.18,5.57-4.74.29-.1.61-.16.95-.19s.85-.05,1.53-.05c1,0,1.99.11,2.97.32s1.98.54,3.01,1v8.56h-3.16c-.65-.78-1.4-1.37-2.26-1.77s-1.81-.61-2.84-.61c-1.59,0-3.27.59-5.03,1.77-1.77,1.18-3.7,3.02-5.81,5.52v28.44l1.7,1.6,6.95.49v3.6h-24.01Z"/>
        <path class="cls-1" d="M875.55,133.84c6.77,0,12.33,2.33,16.67,6.98s6.51,10.62,6.51,17.91-2.18,13.26-6.54,17.91-9.91,6.98-16.65,6.98-12.27-2.32-16.6-6.95c-4.33-4.63-6.49-10.61-6.49-17.94s2.15-13.3,6.44-17.94,9.84-6.95,16.65-6.95ZM875.55,138.12c-4.15,0-7.48,1.87-9.99,5.61-2.51,3.74-3.77,8.74-3.77,15s1.26,11.25,3.79,15,5.85,5.61,9.97,5.61,7.53-1.86,10.06-5.59,3.79-8.73,3.79-15.02-1.27-11.21-3.82-14.97c-2.54-3.76-5.89-5.64-10.04-5.64Z"/>
        <path class="cls-1" d="M903.41,182.75v-3.6l5.4-.49,1.7-1.6v-36.02h-7.1v-3.11l11.57-3.55h3.79v5.44c3.99-2.2,7.19-3.75,9.63-4.64,2.43-.89,4.57-1.34,6.42-1.34,4.34,0,7.66,1.3,9.97,3.89,2.3,2.59,3.45,6.35,3.45,11.28v28.05l1.7,1.6,5.35.49v3.6h-21.78v-3.6l4.76-.49,1.7-1.6v-26.35c0-3.73-.77-6.37-2.31-7.92-1.54-1.56-4.12-2.33-7.75-2.33-1.59,0-3.31.27-5.15.8s-3.84,1.35-5.98,2.45v33.35l1.7,1.6,4.76.49v3.6h-21.83Z"/>
        <path class="cls-1" d="M1000.2,140.55c3.82-2.27,7.15-3.95,9.97-5.06s5.2-1.65,7.15-1.65c4.02,0,7.15,1.3,9.38,3.91s3.35,6.26,3.35,10.96v28.34l1.8,1.6,5.3.49v3.6h-21.73v-3.6l4.67-.49,1.8-1.6v-26.35c0-3.53-.73-6.13-2.19-7.78s-3.71-2.48-6.76-2.48c-1.52,0-3.22.27-5.08.8s-3.91,1.35-6.15,2.45v33.35l1.75,1.6,4.72.49v3.6h-21.24v-3.6l4.81-.49,1.7-1.6v-26.35c0-3.5-.72-6.08-2.16-7.75-1.44-1.67-3.65-2.5-6.64-2.5-1.62,0-3.36.27-5.23.8s-3.9,1.35-6.1,2.45v33.35l1.7,1.6,4.76.49v3.6h-21.83v-3.6l5.4-.49,1.7-1.6v-36.02h-7.1v-3.11l11.57-3.55h3.79v5.44c3.47-2.04,6.49-3.55,9.07-4.52s4.87-1.46,6.88-1.46c2.43,0,4.58.57,6.44,1.7,1.86,1.13,3.36,2.8,4.5,5.01Z"/>
        <path class="cls-1" d="M1081.58,172.2v5.49c-2.95,1.94-6.02,3.42-9.2,4.42-3.18,1-6.38,1.51-9.58,1.51-6.59,0-11.93-2.26-16.04-6.78-4.11-4.52-6.16-10.41-6.16-17.67s2.15-13.54,6.45-18.25c4.3-4.72,9.82-7.07,16.57-7.07,5.51,0,9.89,1.76,13.11,5.27,3.23,3.52,4.85,8.3,4.85,14.37,0,.81,0,1.43-.02,1.85s-.06.83-.12,1.22h-32.28v1.12c0,6.25,1.51,11.21,4.53,14.85,3.02,3.65,7.09,5.47,12.22,5.47,2.37,0,4.83-.47,7.38-1.41s5.31-2.4,8.3-4.38ZM1072.64,152.36v-1.55c0-4-.88-7.07-2.65-9.2-1.77-2.13-4.33-3.2-7.71-3.2s-6.17,1.32-8.58,3.95c-2.41,2.63-3.77,5.97-4.06,10h22.99Z"/>
        <path class="cls-1" d="M1086.78,182.75v-3.6l5.4-.49,1.7-1.6v-36.02h-7.1v-3.11l11.57-3.55h3.79v5.44c3.99-2.2,7.19-3.75,9.63-4.64,2.43-.89,4.57-1.34,6.42-1.34,4.34,0,7.66,1.3,9.97,3.89,2.3,2.59,3.45,6.35,3.45,11.28v28.05l1.7,1.6,5.35.49v3.6h-21.78v-3.6l4.76-.49,1.7-1.6v-26.35c0-3.73-.77-6.37-2.31-7.92-1.54-1.56-4.12-2.33-7.75-2.33-1.59,0-3.31.27-5.15.8s-3.84,1.35-5.98,2.45v33.35l1.7,1.6,4.76.49v3.6h-21.83Z"/>
        <path class="cls-1" d="M1147.12,140.84h-6.27v-3.11l6.56-2.87,4.28-9.29h3.69v10.6h15.17v4.67h-15.17v26.25c0,4.31.6,7.2,1.8,8.68s3.35,2.21,6.47,2.21c1.07,0,2.18-.06,3.33-.19s2.34-.34,3.57-.63v3.69c-2.27.71-4.5,1.26-6.71,1.63s-4.33.56-6.37.56c-3.82,0-6.51-.72-8.05-2.16s-2.31-4.08-2.31-7.9v-32.13Z"/>
        <path class="cls-1" d="M633.07,215.51h24.16v3.99l-6.17.58-1.7,1.41v23.48h34.27v-23.48l-1.7-1.41-6.17-.58v-3.99h24.21v3.99l-5.69.58-1.7,1.41v54.84l1.7,1.41,5.69.49v4.08h-24.21v-4.08l6.17-.49,1.7-1.41v-26.79h-34.27v26.79l1.7,1.41,6.17.49v4.08h-24.16v-4.08l5.64-.49,1.7-1.41v-54.84l-1.7-1.41-5.64-.58v-3.99Z"/>
        <path class="cls-1" d="M701.12,234.42h21.58v3.69l-5.25.39-1.22,1.6,11.96,30.97,12.44-30.97-.78-1.6-5.4-.39v-3.69h17.74v3.69l-5.78.78-19.93,48.37c-2.43,5.87-4.91,10.12-7.44,12.76-2.53,2.64-5.35,3.96-8.46,3.96-2.07,0-3.74-.51-5.01-1.53s-1.9-2.36-1.9-4.01c0-.97.22-1.91.66-2.82s1.08-1.77,1.92-2.58l9.58,3.79c1.46-1.56,2.88-3.61,4.25-6.17,1.38-2.56,2.65-5.48,3.82-8.75l-16.72-43.22-6.08-.58v-3.69Z"/>
        <path class="cls-1" d="M785.28,236.22h14.24v4.67h-10.99c.97,1.46,1.69,2.93,2.14,4.42.45,1.49.68,3.1.68,4.81,0,4.57-1.77,8.3-5.3,11.21-3.53,2.9-8.12,4.35-13.76,4.35h-1.65c-.39.75-.67,1.49-.85,2.24s-.27,1.49-.27,2.24c0,.23.03.71.1,1.46.06.42.1.73.1.92l9.58,1.51c6.22.94,10.6,2.34,13.13,4.2,2.53,1.86,3.79,4.55,3.79,8.05,0,1.91-.53,3.86-1.58,5.86s-2.52,3.75-4.4,5.27c-2.63,2.14-5.62,3.77-8.99,4.89s-6.94,1.68-10.69,1.68c-5.67,0-10.1-1.13-13.27-3.4s-4.76-5.41-4.76-9.43c0-3.21.96-5.91,2.87-8.12s4.54-3.61,7.88-4.23c-.32-.78-.57-1.54-.73-2.28s-.24-1.47-.24-2.19c0-1.26.39-2.67,1.17-4.23s1.98-3.29,3.6-5.2c-3.79-.84-6.8-2.62-9.02-5.32-2.22-2.71-3.33-5.96-3.33-9.75,0-4.89,1.77-8.86,5.32-11.89,3.55-3.03,8.21-4.55,13.98-4.55,1.91,0,3.8.23,5.66.7s3.74,1.17,5.61,2.11ZM769.04,279.34c-2.69.81-4.79,2.07-6.3,3.79-1.51,1.72-2.26,3.69-2.26,5.93,0,2.98,1.26,5.45,3.79,7.41,2.53,1.96,5.77,2.94,9.72,2.94,4.25,0,7.78-1.02,10.6-3.06,2.82-2.04,4.23-4.54,4.23-7.49,0-2.24-.62-3.89-1.85-4.96s-3.99-2.01-8.26-2.82l-9.67-1.75ZM773.03,237.29c-2.98,0-5.36,1.11-7.12,3.33-1.77,2.22-2.65,5.19-2.65,8.92s.9,6.66,2.7,8.9c1.8,2.24,4.16,3.35,7.07,3.35s5.27-1.12,7.07-3.35c1.8-2.24,2.7-5.2,2.7-8.9s-.89-6.66-2.67-8.9-4.15-3.35-7.1-3.35Z"/>
        <path class="cls-1" d="M813.52,233.94h3.89v42.68l1.7,1.6,5.35.49v3.6h-22.36v-3.6l5.25-.49,1.7-1.6v-36.02h-6.95v-3.11l11.42-3.55ZM813.91,211.82c1.62,0,2.99.57,4.11,1.7,1.12,1.13,1.68,2.5,1.68,4.08s-.56,2.93-1.68,4.03-2.49,1.65-4.11,1.65-2.94-.55-4.06-1.65-1.68-2.45-1.68-4.03.56-2.99,1.68-4.11,2.47-1.68,4.06-1.68Z"/>
        <path class="cls-1" d="M869.14,271.76v5.49c-2.95,1.94-6.02,3.42-9.2,4.42s-6.38,1.51-9.58,1.51c-6.59,0-11.93-2.26-16.04-6.78-4.11-4.52-6.16-10.41-6.16-17.67s2.15-13.54,6.45-18.25,9.82-7.07,16.57-7.07c5.51,0,9.89,1.76,13.11,5.27,3.23,3.52,4.85,8.3,4.85,14.37,0,.81,0,1.43-.02,1.85s-.06.83-.12,1.22h-32.28v1.12c0,6.25,1.51,11.21,4.53,14.85s7.09,5.47,12.22,5.47c2.37,0,4.83-.47,7.38-1.41s5.31-2.4,8.3-4.38ZM860.19,251.92v-1.55c0-4-.88-7.07-2.65-9.2-1.77-2.13-4.33-3.2-7.71-3.2s-6.17,1.32-8.58,3.95c-2.41,2.63-3.77,5.97-4.06,10h22.99Z"/>
        <path class="cls-1" d="M874.34,282.31v-3.6l5.4-.49,1.7-1.6v-36.02h-7.1v-3.11l11.57-3.55h3.79v5.44c3.99-2.2,7.19-3.75,9.63-4.64s4.57-1.34,6.42-1.34c4.34,0,7.66,1.3,9.97,3.89,2.3,2.59,3.45,6.35,3.45,11.28v28.05l1.7,1.6,5.35.49v3.6h-21.78v-3.6l4.76-.49,1.7-1.6v-26.35c0-3.73-.77-6.37-2.31-7.92s-4.12-2.33-7.75-2.33c-1.59,0-3.31.27-5.15.8s-3.84,1.35-5.98,2.45v33.35l1.7,1.6,4.76.49v3.6h-21.83Z"/>
        <path class="cls-1" d="M970.6,271.76v5.49c-2.95,1.94-6.02,3.42-9.2,4.42-3.18,1-6.38,1.51-9.58,1.51-6.59,0-11.93-2.26-16.04-6.78-4.11-4.52-6.16-10.41-6.16-17.67s2.15-13.54,6.45-18.25c4.3-4.72,9.82-7.07,16.57-7.07,5.51,0,9.89,1.76,13.11,5.27,3.23,3.52,4.85,8.3,4.85,14.37,0,.81,0,1.43-.02,1.85s-.06.83-.12,1.22h-32.28v1.12c0,6.25,1.51,11.21,4.53,14.85s7.09,5.47,12.22,5.47c2.37,0,4.83-.47,7.38-1.41s5.31-2.4,8.3-4.38ZM961.65,251.92v-1.55c0-4-.88-7.07-2.65-9.2-1.77-2.13-4.33-3.2-7.71-3.2s-6.17,1.32-8.58,3.95c-2.41,2.63-3.77,5.97-4.06,10h22.99Z"/>
        <path class="cls-1" d="M633.07,381.87v-4.08l5.64-.49,1.7-1.41v-54.84l-1.7-1.41-5.64-.58v-3.99h47.69v14.54h-5.59l-1.41-8.46-1.36-1.51h-23.04v25.18h16.33l1.41-1.41.97-7.24h4.72v21.92h-4.72l-.97-7.19-1.41-1.51h-16.33v27.9h26.69l1.41-1.6,1.7-10.06h5.15v16.24h-51.24Z"/>
        <path class="cls-1" d="M686.93,333.98h21.39v3.69l-4.57.58-.49.97,8.36,13.08,9.04-12.74-.78-1.31-4.81-.58v-3.69h17.94v3.69l-5.59.97-13.13,17.45,14.63,21.29,5.98.78v3.69h-21.2v-3.69l4.18-.68.49-.78-9.24-14.88-10.16,14.44.49,1.22,5.69.68v3.69h-18.81v-3.69l5.64-.78,14.34-19.2-13.32-19.45-6.08-1.07v-3.69Z"/>
        <path class="cls-1" d="M775.5,377.68c-2.79,1.62-5.53,2.84-8.22,3.65-2.69.81-5.35,1.22-7.97,1.22-6.74,0-12.16-2.26-16.26-6.78-4.1-4.52-6.15-10.49-6.15-17.91s2.18-13.34,6.54-17.96c4.36-4.62,10.04-6.93,17.04-6.93,4.63,0,8.28.88,10.94,2.65s3.99,4.14,3.99,7.12c0,1.59-.5,2.87-1.51,3.84s-2.35,1.46-4.03,1.46c-.75,0-1.49-.13-2.24-.39s-1.49-.63-2.24-1.12v-8.17c-.78-.45-1.57-.8-2.38-1.05s-1.62-.36-2.43-.36c-4.41,0-7.95,1.84-10.62,5.52s-4.01,8.58-4.01,14.71,1.52,10.83,4.55,14.32c3.03,3.48,7.15,5.23,12.37,5.23,2.17,0,4.29-.35,6.37-1.05,2.07-.7,4.16-1.76,6.27-3.18v5.2Z"/>
        <path class="cls-1" d="M820.28,371.32v5.49c-2.95,1.94-6.02,3.42-9.2,4.42-3.18,1-6.38,1.51-9.58,1.51-6.59,0-11.93-2.26-16.04-6.78-4.11-4.52-6.16-10.41-6.16-17.67s2.15-13.54,6.45-18.25c4.3-4.72,9.82-7.07,16.57-7.07,5.51,0,9.89,1.76,13.11,5.27,3.23,3.52,4.85,8.3,4.85,14.37,0,.81,0,1.43-.02,1.85s-.06.83-.12,1.22h-32.28v1.12c0,6.25,1.51,11.21,4.53,14.85,3.02,3.65,7.09,5.47,12.22,5.47,2.37,0,4.83-.47,7.38-1.41,2.55-.94,5.31-2.4,8.3-4.38ZM811.33,351.48v-1.55c0-4-.88-7.07-2.65-9.2-1.77-2.13-4.33-3.2-7.71-3.2s-6.17,1.32-8.58,3.95c-2.41,2.63-3.77,5.97-4.06,10h22.99Z"/>
        <path class="cls-1" d="M825.29,381.87v-3.6l5.88-.49,1.7-1.6v-60.91h-7.68v-3.11l12.15-3.55h3.79v67.57l1.8,1.6,5.69.49v3.6h-23.33Z"/>
        <path class="cls-1" d="M851.39,381.87v-3.6l5.88-.49,1.7-1.6v-60.91h-7.68v-3.11l12.15-3.55h3.79v67.57l1.8,1.6,5.69.49v3.6h-23.33Z"/>
        <path class="cls-1" d="M919.41,371.32v5.49c-2.95,1.94-6.02,3.42-9.2,4.42s-6.38,1.51-9.58,1.51c-6.59,0-11.93-2.26-16.04-6.78-4.11-4.52-6.16-10.41-6.16-17.67s2.15-13.54,6.45-18.25c4.3-4.72,9.82-7.07,16.57-7.07,5.51,0,9.89,1.76,13.11,5.27,3.23,3.52,4.85,8.3,4.85,14.37,0,.81,0,1.43-.02,1.85s-.06.83-.12,1.22h-32.28v1.12c0,6.25,1.51,11.21,4.53,14.85,3.02,3.65,7.09,5.47,12.22,5.47,2.37,0,4.83-.47,7.38-1.41s5.31-2.4,8.3-4.38ZM910.46,351.48v-1.55c0-4-.88-7.07-2.65-9.2-1.77-2.13-4.33-3.2-7.71-3.2s-6.17,1.32-8.58,3.95c-2.41,2.63-3.77,5.97-4.06,10h22.99Z"/>
        <path class="cls-1" d="M924.61,381.87v-3.6l5.4-.49,1.7-1.6v-36.02h-7.1v-3.11l11.57-3.55h3.79v5.44c3.99-2.2,7.19-3.75,9.63-4.64s4.57-1.34,6.42-1.34c4.34,0,7.66,1.3,9.97,3.89,2.3,2.59,3.45,6.35,3.45,11.28v28.05l1.7,1.6,5.35.49v3.6h-21.78v-3.6l4.76-.49,1.7-1.6v-26.35c0-3.73-.77-6.37-2.31-7.92s-4.12-2.33-7.75-2.33c-1.59,0-3.31.27-5.15.8-1.85.53-3.84,1.35-5.98,2.45v33.35l1.7,1.6,4.76.49v3.6h-21.83Z"/>
        <path class="cls-1" d="M1018.48,377.68c-2.79,1.62-5.53,2.84-8.22,3.65s-5.35,1.22-7.97,1.22c-6.74,0-12.16-2.26-16.26-6.78s-6.15-10.49-6.15-17.91,2.18-13.34,6.54-17.96c4.36-4.62,10.04-6.93,17.04-6.93,4.63,0,8.28.88,10.94,2.65,2.66,1.77,3.99,4.14,3.99,7.12,0,1.59-.5,2.87-1.51,3.84-1,.97-2.35,1.46-4.03,1.46-.75,0-1.49-.13-2.24-.39s-1.49-.63-2.24-1.12v-8.17c-.78-.45-1.57-.8-2.38-1.05s-1.62-.36-2.43-.36c-4.41,0-7.95,1.84-10.62,5.52-2.67,3.68-4.01,8.58-4.01,14.71s1.52,10.83,4.55,14.32c3.03,3.48,7.15,5.23,12.37,5.23,2.17,0,4.29-.35,6.37-1.05,2.07-.7,4.16-1.76,6.27-3.18v5.2Z"/>
        <path class="cls-1" d="M1063.26,371.32v5.49c-2.95,1.94-6.02,3.42-9.2,4.42s-6.38,1.51-9.58,1.51c-6.59,0-11.93-2.26-16.04-6.78-4.11-4.52-6.16-10.41-6.16-17.67s2.15-13.54,6.45-18.25c4.3-4.72,9.82-7.07,16.57-7.07,5.51,0,9.89,1.76,13.11,5.27,3.23,3.52,4.85,8.3,4.85,14.37,0,.81,0,1.43-.02,1.85s-.06.83-.12,1.22h-32.28v1.12c0,6.25,1.51,11.21,4.53,14.85s7.09,5.47,12.22,5.47c2.37,0,4.83-.47,7.38-1.41,2.55-.94,5.31-2.4,8.3-4.38ZM1054.31,351.48v-1.55c0-4-.88-7.07-2.65-9.2-1.77-2.13-4.33-3.2-7.71-3.2s-6.17,1.32-8.58,3.95c-2.41,2.63-3.77,5.97-4.06,10h22.99Z"/>
        <path class="cls-1" d="M658.05,413.8h6.56l23.87,62.32,5.98,1.22v4.08h-22.6v-4.08l6.17-.49.73-1.41-7.19-19.01h-23.48l-7.1,19.01,1.02,1.41,6.47.49v4.08h-19.49v-4.08l5.74-1.22,23.33-62.32ZM659.61,424.26l-9.82,27.61h20.08l-10.26-27.61Z"/>
        <path class="cls-1" d="M686.73,433.54h21.58v3.69l-5.25.39-1.22,1.6,9.09,32.33,13.32-38.02h6.08l11.76,38.02,10.11-32.33-.78-1.6-5.35-.39v-3.69h17.6v3.69l-5.59.78-14.24,43.41h-6.17l-12.01-37.72-13.47,37.72h-6.17l-13.22-43.61-6.08-.58v-3.69Z"/>
        <path class="cls-1" d="M794.95,475.64c-3.21,2.2-6.15,3.83-8.82,4.89-2.67,1.05-5.18,1.58-7.51,1.58-3.86,0-6.94-1.17-9.26-3.5-2.32-2.33-3.48-5.41-3.48-9.24,0-4.25,1.74-7.58,5.23-10.01,3.48-2.43,11.43-5.14,23.84-8.12v-3.16c0-4.18-.68-7.08-2.04-8.7s-3.73-2.43-7.1-2.43c-1.26,0-2.51.13-3.74.39s-2.51.65-3.84,1.17v8.36h-6.85c-1.2,0-2.02-.22-2.45-.66s-.66-1.24-.66-2.41c0-3.24,1.87-5.93,5.61-8.07,3.74-2.14,8.58-3.21,14.51-3.21,5.22,0,9.01,1.13,11.38,3.4,2.37,2.27,3.55,5.91,3.55,10.94v28.88l1.7,1.6,5.25.49v3.6h-14l-1.31-5.78ZM794.95,472.28v-17.55c-8.33,2.3-13.8,4.41-16.41,6.32s-3.91,4.42-3.91,7.53c0,2.5.72,4.48,2.16,5.96,1.44,1.47,3.38,2.21,5.81,2.21,1.56,0,3.35-.37,5.37-1.12,2.03-.75,4.35-1.86,6.98-3.35Z"/>
        <path class="cls-1" d="M813.13,481.42v-3.6l5.3-.49,1.7-1.6v-36.02h-7v-3.11l11.57-3.55h3.79v9.33c1.62-1.65,3.31-3.28,5.08-4.89,1.77-1.6,3.62-3.18,5.57-4.74.29-.1.61-.16.95-.19s.85-.05,1.53-.05c1,0,1.99.11,2.97.32s1.98.54,3.01,1v8.56h-3.16c-.65-.78-1.4-1.37-2.26-1.77s-1.81-.61-2.84-.61c-1.59,0-3.27.59-5.03,1.77s-3.7,3.02-5.81,5.52v28.44l1.7,1.6,6.95.49v3.6h-24.01Z"/>
        <path class="cls-1" d="M884.3,414.82h-7.63v-3.11l12.15-3.55h3.74v67.57l1.7,1.6,4.76.49v3.6h-14.73v-5.15c-2.59,2.07-5.12,3.6-7.58,4.57s-5.04,1.46-7.73,1.46c-5.57,0-10.17-2.18-13.78-6.54-3.61-4.36-5.42-9.94-5.42-16.75,0-7.91,2.37-14.32,7.12-19.23,4.75-4.91,10.93-7.36,18.55-7.36,1.33,0,2.74.1,4.23.29s3.03.47,4.62.83v-18.72ZM884.3,472.58v-34.17c-1.81-.52-3.44-.92-4.89-1.19s-2.73-.41-3.86-.41c-5.09,0-9.2,1.88-12.32,5.64-3.13,3.76-4.69,8.72-4.69,14.88,0,5.74,1.35,10.29,4.06,13.66,2.71,3.37,6.33,5.06,10.86,5.06,1.75,0,3.52-.28,5.32-.85,1.8-.57,3.64-1.43,5.52-2.6Z"/>
      </g>
      <rect class="cls-1" x="561.05" width="6.22" height="501.57"/>
      <g>
        <path class="cls-1" d="M265.76,177.22l2.25,9.44.5,1.94,1.54-4.24c2.36-6.42,33.93-92.4,35.36-96.36l-23.11-6.2-1.87,10.87-14.66,84.55Z"/>
        <path class="cls-1" d="M273.67,204.02c.93,1.92,2.03,3.79,3.18,5.55l.82-1.21,71.05-106.62,6.09-9.17-20.26-11.64-4.83,9.83-56.06,113.27Z"/>
        <path class="cls-1" d="M281.79,215.88c1.21,1.37,2.53,2.69,3.9,3.9l110.41-98.77,8.18-7.36-16.36-16.36-7.36,8.18-98.77,110.41Z"/>
        <path class="cls-1" d="M292,224.72c1.76,1.15,3.62,2.25,5.54,3.13l139.24-70.94,9.77-5-11.53-20.04-9.22,5.98-132.59,86.03-1.21.82Z"/>
        <polygon class="cls-1" points="312.64 232.98 314.73 233.5 323.96 235.7 463.63 206.49 474.39 204.24 468.41 181.84 457.92 185.29 317.04 231.58 312.64 232.98"/>
        <polygon class="cls-1" points="77.99 219.28 88.86 221.15 173.41 235.81 183.07 233.5 184.85 233.05 180.77 231.58 94.57 199.95 84.19 196.17 77.99 219.28"/>
        <path class="cls-1" d="M77.11,167.01l9.88,4.83,113.27,56.06c1.92-.93,3.79-2.03,5.55-3.18l-1.21-.82-106.62-71.04-9.17-6.09-11.69,20.26Z"/>
        <path class="cls-1" d="M93.53,113.64l8.18,7.36,110.41,98.77c1.37-1.21,2.69-2.53,3.9-3.9l-98.77-110.41-7.36-8.18-16.36,16.36Z"/>
        <path class="cls-1" d="M128.12,66.54l5.98,9.22,86.03,132.59.77,1.26c1.21-1.76,2.25-3.62,3.18-5.6l-70.99-139.24-5-9.77-19.98,11.53Z"/>
        <polygon class="cls-1" points="178.08 33.16 181.54 43.64 227.77 184.36 229.22 188.91 229.8 186.61 231.94 177.66 202.73 37.93 200.48 27.17 178.08 33.16"/>
        <polygon class="cls-1" points="192.35 417.37 215.52 423.58 217.39 412.71 232.05 328.15 229.74 318.49 229.3 316.79 227.77 320.8 196.2 406.99 192.35 417.37"/>
        <path class="cls-1" d="M142.99,412.76l20.2,11.69,4.89-9.88,56.06-113.27c-.93-1.92-2.03-3.79-3.18-5.55l-.82,1.21-71.05,106.62-6.09,9.17Z"/>
        <path class="cls-1" d="M93.53,391.68l16.36,16.36,7.36-8.18,98.77-110.41c-1.21-1.37-2.53-2.69-3.9-3.9l-110.41,98.77-8.18,7.36Z"/>
        <path class="cls-1" d="M51.25,353.46l11.53,19.98,9.22-5.98,132.59-86.03,1.26-.77c-1.76-1.21-3.62-2.25-5.6-3.18l-139.24,70.99-9.77,5Z"/>
        <polygon class="cls-1" points="23.41 301.09 29.4 323.49 39.83 320.03 180.77 273.8 185.07 272.33 183.07 271.82 173.85 269.63 34.18 298.84 23.41 301.09"/>
        <polygon class="cls-1" points="313.02 272.26 317.04 273.8 403.24 305.37 413.56 309.21 419.76 286.04 408.89 284.18 324.4 269.52 314.73 271.82 313.02 272.26"/>
        <path class="cls-1" d="M292,280.61l1.21.82,106.62,71.04,9.17,6.09,11.69-20.2-9.88-4.89-113.27-56.06c-1.92.93-3.79,2.03-5.54,3.18Z"/>
        <path class="cls-1" d="M281.79,289.45l98.77,110.41,7.36,8.18,16.36-16.36-8.18-7.36-110.41-98.77c-1.37,1.21-2.69,2.53-3.9,3.9Z"/>
        <path class="cls-1" d="M273.72,301.31l70.94,139.24,5,9.77,20.04-11.53-5.98-9.22-86.03-132.59-.82-1.21c-1.15,1.76-2.25,3.62-3.13,5.55Z"/>
        <polygon class="cls-1" points="265.87 327.66 295.08 467.39 297.33 478.15 319.73 472.17 316.27 461.73 270.04 321.02 268.55 316.55 268.01 318.65 265.87 327.66"/>
        <polygon class="cls-1" points="237.92 14.75 248.9 163.53 259.88 14.75 260.69 3.77 237.11 3.77 237.92 14.75 237.92 14.75"/>
        <polygon class="cls-1" points="10.98 263.65 159.76 252.67 10.98 241.69 0 240.88 0 264.46 10.98 263.65 10.98 263.65"/>
        <polygon class="cls-1" points="259.88 490.58 248.9 341.81 237.92 490.58 237.11 501.56 260.69 501.56 259.88 490.58 259.88 490.58"/>
        <polygon class="cls-1" points="486.81 241.69 338.04 252.67 486.81 263.65 497.79 264.46 497.79 240.88 486.81 241.69 486.81 241.69"/>
      </g>
    </g>
  </g>
</svg>